<?xml version="1.0" encoding="UTF-8"?>
<svg id="Capa_2" data-name="Capa 2" xmlns="http://www.w3.org/2000/svg" viewBox="0 0 896.11 640.76">
  <defs>
    <style>
      .cls-1 {
        fill: #000;
        stroke-width: 0px;
      }
    </style>
  </defs>
  <g id="Capa_1-2" data-name="Capa 1">
    <path class="cls-1" d="m307.74,507.84c-6.69-8.07-12.02-17.44-21.56-23.23,1.54,5.72-4.96,10.26-1.54,15.85.26.42.05,1.56-.33,1.86-7.81,6.06-5.75,15.75-8.65,23.6-2.33,6.3-3.16,13.23-6.01,19.24-2.23,4.7-4.03,9.26-2.95,14.15,1.45,6.56,2.42,13.21,7.11,18.93,3.11,3.79,4.15,9.32,5.89,14.15.69,1.92.77,4.07,1.27,6.91-1.44-1.06-2.61-1.49-3.05-2.31-3.02-5.65-9.6-6.43-13.82-10.3-6.12-5.62-14.82-6.97-20.45-13.96-3.08-3.82-9.83-4.68-14.91-6.88-.9-.39-1.77-.83-3.21-1.5,4.97-2.93,9.59-5.52,14.06-8.35,1.77-1.12,4.06-2.48,4.63-4.21,1.48-4.56,4.68-7.18,8.19-10.05,6.79-5.57,9.85-13.14,10.25-21.95.15-3.36,1.18-6.71,2.05-10.01,2.02-7.67,4.28-15.1,1.2-23.25-1.28-3.38.56-7.87-.46-11.44-1.83-6.43.96-11.88,1.97-17.78.88-5.13,1.45-10.82.14-15.72-2.32-8.64-8.94-14.43-17.33-16.93-6.16-1.84-12.31.6-17.05,5-5.78,5.36-11.2,11.11-16.68,16.79-4.59,4.76-9.61,9.26-13.42,14.6-6.14,8.61-11.84,17.65-12.33,28.81-.05,1.1-.38,2.33-.98,3.23-5.74,8.66-4.33,18.56-4.85,28.08-.41,7.41,4.24,13.02,7.61,19.04,1.25,2.23,2.54,4.44,3.99,6.97-.63,0-1.71.34-2.17-.05-3.92-3.31-8.1-6.41-11.47-10.23-5.11-5.79-10.72-10.08-18.79-10.11-4.76-.02-6.43-3.89-8.78-7-1.99-2.65-4.17-5.15-6.32-7.68-2.06-2.43-4.19-4.8-7.11-8.13-7.73,1.78-13.12-5-19.81-9.33-5-3.25-10.93-5.04-16.11-8.06-2.47-1.44-4.18-4.21-6.2-6.4-2.38-2.59-4.44-5.57-7.13-7.77-8.98-7.32-18.16-14.39-27.32-21.49-1.24-.96-2.78-1.54-4.18-2.3-3.58-1.94-7.13-3.94-10.74-5.82-2.86-1.49-5.93-2.64-8.66-4.33-2.18-1.35-6.32-1.02-5.59-5.58,4.36,2.06,8.28,5.38,13.52,2.92.68-.32,1.84.38,2.78.59,6.73,1.51,13.4-2.02,14.81-8.75,1.32-6.32,3.48-12.03,6.55-17.73,2.15-3.98,1.54-9.36,3.21-13.71,2.7-7.05,5.8-14.06,9.65-20.53,2.4-4.04,4.31-10.93,1.79-15.1-3.65-6.03-3.73-12.55-3.68-19.28.05-5.75.01-11.62-1.1-17.22-.69-3.48-3.44-6.56-4.62-8.67,1.63-4.08,3.43-7.42,4.3-10.99,4.02-16.62,2.56-33.25-.42-49.85-.81-4.48-1.09-9.1-2.32-13.46-1.36-4.8-3.66-9.33-5.31-14.06-.78-2.25-1.69-4.82-1.32-7.05,1.66-10.12-3.06-17.5-9.61-24.23-.44-.46-1.1-1.08-1.62-1.04-10.39.73-20.52-5.69-30.94-1.26-1.94.83-4.06,2.96-4.64,4.93-1.56,5.28-2.43,10.78-3.32,16.24-.18,1.07.77,3.32,1.16,3.31,1.96-.04,3.91-.65,6.28-1.15.48,6.75.93,13.86-1.74,21.28-2.17,6.02-2.17,12.83-3.37,20.82-1.04-2.57-1.86-3.98-2.19-5.49-1.16-5.26-2.02-10.58-3.28-15.81-.36-1.51-1.74-2.75-2.5-4.18-1.15-2.16-2.3-4.33-3.21-6.58-2.42-5.99-4.47-12.15-7.16-18.01-2-4.38-4.77-8.4-7.82-13.66,9.26-4.17,17.3-8.06,25.55-11.43,6.93-2.83,14.17-4.88,21.13-7.62,2.52-.99,4.52-3.27,6.99-4.49,8.32-4.1,16.81-7.84,25.11-11.98,9.88-4.94,21.06-7.39,28.96-16.16,3.31-3.67,8.22-5.84,11.95-9.2,3.15-2.84,5.64-6.43,8.95-10.3,1.9,8.44,9.33,8.88,15.36,11.11-3.23,6.6-1.36,14.28,3.89,17.79,2.93,1.96,11.44-.88,11.95-4.38.66-4.5.48-9.13.66-13.7.7,1.85,1.1,3.89,2.17,5.49,1.83,2.75,3.45,6.76,7.96,4.21,3.81-2.15,4.52-6.76,2.27-10.72-.69-1.21-.43-3-1.2-4.11-1.09-1.56-2.62-3.62-4.17-3.83-1.45-.19-3.65,1.42-4.68,2.85-1.25,1.73-1.61,4.11-2.36,6.2-2.88-3.84-5.29-8.67-11.88-4.99-.53-2.61-2.05-6.07-1.22-6.77,3.44-2.93,7.35-5.58,11.51-7.32,7.65-3.19,15.82-5.1,22.25-10.88,1.63-1.46,4.02-2.13,6.13-3,6.12-2.52,12.28-4.96,19.32-7.79-4.42,6.95-8.48,12.87-12.05,19.08-3.55,6.18-1.02,13.3,4.64,17.73,3.95,3.09,6.93,7.42,9.48,11.93-2.52-1.54-5.04-3.08-8.42-5.14-.21,2.64-.8,4.23-.34,5.42,2.77,7.15,3.63,15.17,9.79,20.83,1.13,1.04.64,3.71,1.22,5.52.78,2.43,1.27,6.02,2.99,6.86,3.6,1.76,4.18-2.22,5.39-4.55.14-.28.43-.49.65-.73,3.77,5.06,3.79,5.83.75,10.96-.47.8-.93,1.92-.75,2.75,2.08,9.31-2.9,17.53-3.83,26.32-.74,7.06-1.22,14.35,2.22,21.26,1.08,2.17.49,5.23.46,7.88-.05,5.21-.35,10.43-.34,15.64,0,5.17.28,10.34.41,15.51.04,1.8,0,3.6,0,5.71,4.56.5,8.75,1.29,12.96,1.35,7.94.12,9.87-6.74,12.2-12.12,2.6-6,3.84-12.58,5.65-18.79-.14,4.19,4.17,7.87,1.34,13.19-1.91,3.59,2.16,6.53,8.66,6.23.14-1.7.28-3.46.46-5.62,3.88,2.24,6.41,1.32,9.07-2.47,3.24-4.62,6.79-8.37,7.57-14.71.78-6.31,5.19-12.09,6.52-18.42,1.33-6.34,3.26-12.99-.65-19.6-3.33-5.63-5.65-11.86-8.65-18.32,2.96,1.42,5.9,2.83,8.73,4.18,1.15-4.41,2.83-8.03,2.85-11.65.03-4.98-.6-10.15-2.03-14.91-1.96-6.48-4.8-12.72-7.53-18.94-3.15-7.18-7.01-14.04-5.74-22.43.8-5.31.17-10.54-3.39-14.98-.6-.75-.91-1.9-1.66-2.35-5.78-3.45-17.16.86-19.17,7.23-.41,1.28-.49,2.66-.73,4-.56.06-1.13.12-1.69.18-.6-2.66-1.39-5.29-1.75-7.98-1.47-11.01-2.08-22.24-8.74-32.29,7.64-3.31,14.78-8.48,24.12-7.42,1.76.2,3.83-1.28,5.59-2.28,3.65-2.07,7-4.78,10.81-6.43,7.94-3.43,16.17-6.19,24.14-9.57,1.84-.78,3.22-2.83,4.61-4.47,4.29-5.06,9.79-6.77,16.24-6.5,4.98.21,10.24,1.01,14.92-.2,7.62-1.96,15.83-3.41,21.5-11.1.39,1.8.64,2.97.9,4.19,3.88,1.31,7.23.55,9.48-2.97,2.91-4.56,7.94-4.07,12.16-5.57,1.62-.57,3.56-1.08,4.61-2.28,4.54-5.18,10.84-6.47,16.95-8.21.65-.18,1.46.2,3.23.48-4.53,3.67-12.85,2.97-10.31,11.9,4.82,0,9.94.4,14.97-.11,4.87-.49,8.88-2.64,8.2-6.03-1.39,6.98,3.13,14.33,8.8,21.63,1.75,2.26,1.46,6.66,1.03,9.94-.92,7-.6,13.83-.38,20.87.42,13.21,7.35,25.25,5.66,38.58-.39,3.07-.63,6.15-1.16,9.23-1.59-12.3-4.24-24.17-12.01-34.23-1.1-1.43-2.18-3.23-3.7-3.91-11.95-5.35-23.83-11.3-37.63-8.41-2.28.48-4.55,1-6.82,1.53-14.25,3.37-17.46,9.05-13.49,23.42.99,3.6,1.13,7.46,2.26,11,.57,1.77,2.99,4.6,3.71,4.36,2.25-.75,4.09-2.74,6.08-4.26.07-.06-.06-.34-.01-.48.59-1.63,1.16-3.26,1.88-4.83.06-.13,1.69.27,1.68.34-.17,1.72-.5,3.43-.72,5.15-.27,2.18-1.29,4.72-.54,6.48,2.76,6.46,1.61,12.86,1.02,19.43-.38,4.16.43,8.43.68,12.65.06.99,0,1.99,0,2.99-6.76-.56-7.94,1.01-6.98,7.87,1.1,7.87,3.08,15.71.2,23.74-.76,2.12.15,4.87.43,7.32.42,3.74.02,7.95,1.64,11.08,2.95,5.7.58,10.23-.98,15.38-.78,2.58.31,5.79.81,8.68.72,4.16,1.73,8.26,2.48,12.41.24,1.29.53,2.9,0,3.95-3.31,6.53-.1,11.65,3.27,16.81,6.02,9.23,17.74,14.48,25.41,3.22.36-.54.85-1.22,1.4-1.37,7.65-1.97,7.48-8.76,8.64-14.46.6-2.93,4.22-6.88-1.48-9.06-.2-.08-.02-1.91.4-2.72,5.36-10.38,3.38-20.71-.03-31.07-.3-.9-.17-1.95-.25-3.12-6.88-1.95-5.26,4.5-6.96,6.45-7.64-19.52,1.6-37.71,6.96-56.43,0,5.44.22,10.89-.05,16.32-.53,11.09,3.29,20.91,7.95,30.65,1.44,3.02,1.14,6.91,2.71,9.82,2.5,4.61,5.9,8.73,9.23,13.49-1.57,3.76-3.53,7.96-5.08,12.3-1.43,4.02,1.52,9.58,5.62,11.74,1.43.75,2.57,2.05,5.36,4.35-2.25,1.52-4.15,2.82-6.07,4.1-7.32,4.89-9.63,12.28-9.6,20.47.03,9.46.98,18.92.84,28.37-.11,7.2-.24,14.69-2.27,21.48-2.1,7.01-1.6,13.54-.59,20.35,2.04,13.66,8.07,25.71,17.86,34.95,7.46,7.04,14.65,13.9,19.93,22.77,1.04,1.75,4.07,2.7,6.36,3.13,1.01.19,3.5-1.88,3.47-2.87-.11-3.4-1.03-6.77-1.64-10.15-.07-.4-.27-.88-.12-1.19,2.47-5.15-.74-9.73-1.24-14.59-.31-2.95.83-6.03,1.12-9.07.24-2.48-.03-5.02.31-7.47.26-1.89.88-3.81,1.76-5.51,4.72-9.18.68-16.96-4.05-24.42-1.71-2.7-2.35-4.1.29-6.62,1.7-1.62,2.38-4.54,3.01-7.01,1.95-7.65,3.23-15.33-1.94-22.4-.19-.27-.62-.63-.56-.78,2.9-6.69-5.31-13.09-.52-19.82.17-.24.22-.73.09-.97-3.42-6.34-2.86-14.44-8.41-19.78-5.57-5.35-5.85-6.78-1.45-12.98,2.53-3.56,3.2-6.98-.1-10.68-2.37-2.66-4.24-4.22-6.8,1.81-.33-6.89-.4-11.64,3.41-15.81,3.22-3.52,6.04-7.4,8.89-11.23.95-1.27,2.02-2.85,2.07-4.32.13-3.77,2.17-5.76,4.58-8.48,2.54-2.86,3.14-7.99,3.37-12.2.33-5.73-.69-11.53-.75-17.3-.04-3.77.84-7.54.86-11.31.03-5.99-.32-11.86.69-17.94.78-4.66-2.13-9.81-2.52-14.81-.77-9.86-9.19-15.86-11.85-24.75-.71-2.38-3.17-4.21-4.11-6.58-.53-1.32.42-3.22.7-4.86,1.4,1.12,3.44,1.96,4.08,3.41,1.97,4.5,1.77,4.59,7.5,4.2-.38-2.04-.92-3.99-1.06-5.96-.1-1.35.42-2.74.55-4.12.26-2.86.87-5.77.54-8.57-.41-3.5-1.77-6.88-2.43-10.36-1.48-7.84-3.26-15.23-10.74-20.1-4.58-2.98-9.28-6.61-12.22-11.08-3.53-5.36-4.12-12.16-2.36-18.54.99-3.59,3.16-6.85,4.97-10.64.72,4.44.95,8.12,2.02,11.55.48,1.52,2.63,2.52,4.02,3.76.74-1.54,1.53-3.06,2.18-4.64.24-.58.13-1.29.3-3.59,3.41,1.94,6.1,3.55,8.87,5.01,6.96,3.67,13.87,7.44,20.99,10.77,1.54.72,3.87-.14,5.81-.42,9.48-1.4,18.56-1.85,27.02,4.44,9.69,7.19,19.55,14.34,30.08,20.14,10.38,5.72,21.66,7.41,33.96,5.07,7.37-1.4,12.87-4.91,18.89-8.37,2.14-1.23,5.09-1.1,7.68-1.47.78-.11,1.68.43,2.43.25,6.16-1.45,9.22,2.14,11.94,6.83,1.01,1.74,2.74,3.77,4.52,4.24,6.56,1.75,6.86,6.88,7.57,12.12.43,3.2,1.15,6.41,2.21,9.45,2.14,6.16,4.49,12.25,6.95,18.28,1.34,3.28,3.47,6.28,4.54,9.63,3.58,11.16,6.71,22.46,10.32,33.6.86,2.65,2.38,5.68,4.54,7.21,6.52,4.64,10.25,3.33,14.48-3.43,2.02-3.24,5.14-5.77,7.38-8.9,2.46-3.44,4.03-7.61,6.81-10.72,3.18-3.54,6.88-7.03,11.06-9.14,5.61-2.83,9.57-6.98,14-11.18,3.72-3.53,10.09-4.58,15.49-5.93,8.03-2,13.86,3.99,20.37,6.95,5.39,2.45,10.6,4.24,16.51,4.13,5.4-.1,5.8,1.07,4.29,6.19-2.41,8.19-4.34,16.47-2.32,25.21,1.03,4.48,3.02,7.19,8.12,7.05-1.96,5.33-.18,9.54,3.65,12.52,3.35,2.6,13.65,1.39,16.45-1.99,2.45-2.96,6.86-3.96,7.4-9.32.25-2.51,5.45-4.68,8.62-6.67,2.54-1.6,2.08-2.9.36-4.68-3.92-4.06-8.54-4.11-12.56-.04-3.37,3.41-6.15,3.57-9.1,1.05,1.87-.96,4.27-1.71,6.05-3.2,7.16-6,11.78-5.78,19.7-.38,6.47,4.42,10.43,11.94,18.27,14.47,5.34,1.72,10.77,3.13,16.12,4.81,2.48.78,4.86,1.9,7.6,2.99-3.18,3.93-3.56,5.74,1,7.5,4.72,1.82,8.82,5.19,13.28,7.74,1.06.61,2.47.63,3.72.89,1.11.24,2.45.11,3.3.71,7.55,5.3,15.48,10.25,20.43,18.4.77,1.27.44,3.19.76,4.78.59,3.01,1.5,5.97,1.83,9,.21,1.93-.51,3.94-.63,5.92-.45,7.49-.54,15.01-1.3,22.47-.63,6.15-1.76,12.29-3.11,18.33-2.17,9.77-4.69,19.47-7.11,29.19-.09.37-.64.62-.97.93-.5-.1-1.01-.2-1.51-.31.99-5.61,2.29-11.19,2.84-16.84.31-3.23-.54-6.59-1.05-9.85-.05-.35-1.49-.83-2.09-.64-.56.18-1.18,1.17-1.21,1.83-.21,4.69-2.34,8.01-5.46,11.66-3.21,3.75-4.24,9.38-6.21,14.19-1.91,4.65-4.56,9.14-5.56,13.98-2.56,12.3-13.28,17.38-20.91,25.22-1.24,1.27-2.76,3.81-2.26,4.87.71,1.51,3.2,3.12,4.88,3.06,7.2-.25,14.2-1.85,19.2-7.59,4.5-5.17,8.54-10.74,11.91-15.02-1.33,6.56-2.65,15.41-9.58,20.94-6.33,5.05-13.55,9.68-21.14,12.19-4.77,1.58-10.86-.3-15.86,2.66-1.73,1.03-3.28,2.37-4.99,3.44-.92.58-1.97,1.18-3.02,1.31-7.2.9-10.79,3.52-11.48,10.56-1.2,12.38-1.8,24.83-2.21,37.26-.1,2.96,1.54,5.98,2.34,8.98.58,2.18,1.22,4.36,1.6,6.58.53,3.08,0,6.68,1.42,9.21,5.17,9.22,7.63,20.05,15.96,27.42.79,7.93,11.82,8.77,12.01,17.29.01.69,2.85,1,3.66,2.04,1.62,2.06,4.06,4.71,3.76,6.76-.46,3.09-1.08,7.15-6.44,7.26-2.76.06-5.68,2.33-8.13,4.14-2.33,1.73-5.31,3.36-4.46,7.39.15.73-1.59,2.17-2.73,2.79-4.02,2.17-8.45,3.71-12.17,6.28-4.21,2.9-7.82,6.67-11.72,10.02-.48.42-1.09.88-1.68.94-13.21,1.5-21.14,11.29-29.94,19.47-3.57,3.32-5.61,8.25-8.84,12.03-2.22,2.6-5.06,4.84-8,6.61-4.1,2.46-9.05,3.35-10.74,9.07-1.1,3.73-5.24,4.26-8.87,1.8-1.77-1.2-3.22-3.02-5.13-3.79-1.58-.64-4.43-.94-5.29-.04-2.53,2.67-5.13,2.19-7.61.89-8.92-4.64-18.56-8.52-22.45-19.13-.28-.76-.95-1.39-1.15-2.15-.74-2.81,1.86-7.02-3.62-7.79-3.03-.42-5.96-1.87-8.97-2.02-3.06-.15-4.28-.73-4.46-4.15-.43-7.97-8.68-16.03-15.32-15.58-6.8.45-14.01,7.05-15.88,13.74-.81,2.9-2.6,5.71-4.55,8.06-2.92,3.52-3.18,6.72-2.11,11.27,1.49,6.31.78,13.1,1.77,19.57,1.05,6.84,2.44,13.73,4.76,20.21,1.26,3.51,1.51,6.14.53,9.74-1.45,5.3-1.44,10.98-2.42,16.43-.48,2.65-1.78,5.16-2.64,7.55-1.69-1.05-2.92-2.42-4.11-2.38-1.09.04-2.46,1.4-3.12,2.52-4.23,7.24-9.69,13.51-18.09,14.9-3.37.56-7.67-2.35-11.04-4.48-2.65-1.68-4.49-4.61-6.74-6.93-1.22-1.26-2.34-2.91-3.85-3.52-5.09-2.07-8.14-6.22-10.56-10.62-2.8-5.08-4.39-10.83-7.19-15.91-1.78-3.23-4.42-6.29-7.37-8.5-2.86-2.14-3.29-5.62-5.24-7.65-5.77-5.98-5.73-13.38-6.95-20.62-.54-3.2-1.89-6.26-2.65-9.44-.34-1.41-.78-3.36-.11-4.36,3.24-4.8,1.82-9.6.98-14.66-.88-5.34-.86-10.82-1.26-16.24-.12-1.64.17-3.51-.53-4.87-4.76-9.28-4.75-19.72-7.48-29.47-1.23-4.39-3.15-8.58-4.67-12.64,4.89-6.62,11.2-12.35,10.63-21.49-.1-1.59-.3-3.5-1.22-4.65-5.74-7.13-6.79-15.46-6.72-24.15.04-5.28.54-10.61-2.7-15.37-.65-.95-.75-2.69-.39-3.84,3.42-11.08-.64-20.07-8.06-27.81-6.29-6.56-12.91-12.86-19.85-18.71-2.89-2.44-7-3.43-9.94-4.8-.54.19.23-.08,1.95-.69-4.07-2-7.51-3.69-11.28-5.55.07,1.19.11,1.97.17,2.97-.62-.32-1.03-.39-1.12-.6-1.57-3.87-4.68-4.15-7.67-2.52-3,1.63-5.04,4.04-3.26,8.21,1.99,4.64,3.28,9.58,4.87,14.39-4.51,1.64-5.5,4.19-3.38,9.37,2.3,5.62,4.98,11.1,6.91,16.84.89,2.66.4,5.79.54,8.7-.47.05-.93.1-1.4.16-.39-.48-.87-.92-1.16-1.45-.94-1.68-1.08-5.16-3.87-3.46-1.63.99-2.94,4.4-2.61,6.42,1.34,8.06,3.29,15.99-1.89,23.47-.19.27-.46.6-.44.89.65,7.65-2.32,15.34,1.31,23.06,3.04,6.45,4.78,13.51,7.04,20.31.22.65.03,1.44.03,2.1-.61.08-.83.19-.93.12-1.78-1.32-3.54-2.65-5.31-3.99-1.13,2.27-2.95,4.45-3.23,6.82-.42,3.56.28,7.24.41,10.88.18,5.07.06,10.15.45,15.2.42,5.47,1.72,10.9,1.84,16.37.14,6.44-.23,12.94-1.06,19.32-.64,4.95-2.43,9.73-3.51,14.64-.39,1.75-.98,4.19-.14,5.35,4.48,6.19,1.78,12.83,1.78,19.29,0,1.16,0,2.32,0,3.9,1.29.1,2.45.19,4.62.36-.97,5.78-1.84,11.42-2.87,17.03-.96,5.26,2.05,12.29,6.5,14.79.43.24.94.42,1.28.76,3.16,3.17,6.41,5.53,10.71.65.17,2.77.09,4.63.44,6.39.79,3.96,2.06,7.31,7.2,4.37.67-.39,1.87-.12,2.74.14,6.46,1.92,12.23-2.13,12.54-8.72.07-1.58.56-3.21,1.17-4.69,2.85-6.87,3.95-13.69,1.07-20.95-.76-1.91-.37-4.76.51-6.73,3.88-8.77,1.47-16.68-2.77-24.41-2.08-3.79-2.03-7.54-1.42-11.81.58-4.14-.67-8.54-1.07-12.44.88.33,3.1,1.83,3.82,1.3,1.55-1.14,3.08-3.25,3.27-5.1.69-6.74,1.12-13.54,1.04-20.31-.04-3.8-1.3-7.59-1.91-11.39-.14-.85.15-1.76.4-4.08,3.25,7.6,5.91,13.57,5.91,20.82,0,11.28.84,22.61,2.17,33.82.53,4.47,3.41,8.64,5.04,13.01.36.96-.05,2.22-.17,3.34-.92,8.25-2.64,16.52,1.88,24.42.52.9-.13,2.76-.71,3.94-2.54,5.1-3.06,9.84-.86,15.56,3.47,9.02,4.91,18.61,2.61,28.41-.12-1.03-.11-2.1-.39-3.08-.25-.86-.82-1.62-1.25-2.43-.89.48-2.05.74-2.62,1.46-2.22,2.82-5.34,4.59-6.75,8.59-.74,2.09-6.48,2.98-10.08,3.4-8.97,1.04-18.02,1.35-27.01,2.28-2.52.26-5.17,1.28-7.34,2.64-4.07,2.56-7.66,2.95-11.72-.06-4.6-3.42-9.14-.72-13.49.98-5.11,2-10.14,3.66-15.7.79,4.1-2,9.19-2.85,9.07-9.86-5.97.55-11.77.41-17.21,1.75-5.75,1.42-11.1,4.41-16.75,6.36-2.39.83-5.43,1.69-7.57.9-4.52-1.67-8.37-.83-12.18,1.34-2.84,1.62-5,1.27-6.35-1.74-3-6.67-10.16-6.62-15.41-9.63-.74-.42-2.16.49-3.29.57-2.6.17-5.81,1.23-7.69.11-6.05-3.61-11.56-1.64-17.49-.12-2.22.57-5.47-.36-7.38-1.78-2.76-2.05-4.57-5.33-7.09-7.77-1.85-1.79-4.35-4.53-6.28-4.31-8.99,1.03-16.4-3.88-24.89-5.61.47-.58.85-1.07,1.26-1.54,5.41-6.07,5.29-5.97.27-12.19-2.67-3.31-4.83-7.04-7.49-10.99,2.21-.71,4.56-1.24,6.7-2.21,1.76-.8,3.96-1.75,4.78-3.28,3.67-6.87,6.93-13.97,10.3-21,.56-1.17.69-2.65,1.48-3.61,6.08-7.4,3.34-15.04.76-22.67-.94-2.8-2.14-5.51-3.21-8.27,2.68,4.8,5.49,9.45,12.9,9.99-.99-6.09-2.44-11.58-2.64-17.11-.24-6.39-4.38-8.69-9.14-10.79-1.65-.73-3.42-1.2-5.07-1.92-4.11-1.8-5.91-.26-5.95,3.97Zm538.73-253.54c-.21-1.41-.41-2.82-.61-4.17-6.89-.53-12.1,3.28-12.06,8.94,4.76-.42,10.71,2.84,12.77-4.87-.85,5.58.44,7.82,5.28,9.18,4.49,1.26,3.96-2.74,4.93-4.92,1.51-3.39-.97-8.81-4.46-9.6-4.35-.99-4.76,2.67-5.85,5.45ZM140.9,491.38c-.34-1.03-.68-2.06-1.03-3.08-1.18.42-3.1.56-3.38,1.32-.7,1.85-1.05,4.06-.71,5.97.17.96,2.16,1.59,3.56,2.53.68-2.85,1.16-4.88,1.64-6.92.37,3.15.74,6.29,1.11,9.44.48-.3.96-.6,1.45-.9,1.49,1.37,3.25,2.55,4.43,4.16,2.33,3.19,5.79,3.83,8.84,1.3,1.01-.84,2-1.69,3-2.53.04,2.65-.31,5.39.24,7.93.39,1.81,1.64,4.39,3.07,4.84,3.56,1.12,7.45,1.24,11.21,1.67.28.03.9-.65.94-1.04.4-3.51,1.54-7.21.85-10.52-1.04-4.97-3.38-9.67-5.29-14.84-3.36-1.13-5.23,1.31-7.01,4.03-.95,1.45-2.04,2.8-3.07,4.19,0-.83.02-1.66.03-2.48.01-6.53-.23-6.75-6.49-7.02-1.43-.06-3.11-.19-4.21-.96-4.47-3.14-7.18-1.46-9.17,2.92Zm490.75-179.29c2.4-.66,4.81-1.31,7.41-2.02v-9.7c-3.46.65-6.59,1.23-10.24,1.91,1.02,3.47,1.95,6.64,2.88,9.8-1.66,5.47-3.6,10.87-4.91,16.42-3.14,13.35-1.79,19.87,8.36,28.4,3.21,2.7,5.25,2.21,6.78-1.48.93-2.24,2.31-4.41,2.66-6.74.29-1.97.09-5.16-1.13-6-3.78-2.58-4.2-5.89-4.03-9.87.17-3.97-.04-7.97-.09-11.95-.04-2.48.79-5.65-.43-7.24-1.06-1.38-4.44-.97-6.8-1.36-.16-.03-.31-.12-.45-.19Zm65.56,134.84c.37-1.78.73-3.56,1.19-5.77-4.64,2.49-8.62,4.62-12.59,6.77-7.74,4.18-7.62,8.47-7.29,16.18.13,2.93,3.02,3.99,5.37,2.09,1.15-.93,1.88-2.4,2.78-3.64,2.91-4.01,5.8-8.02,8.7-12.04-.43,1.15-.74,2.36-1.31,3.43-4.25,7.9-8.76,15.68-12.66,23.75-.74,1.52.37,4.53,1.53,6.23,1.52,2.22,3.81,4.01,6.01,5.65,6.21,4.64,12.44,9.29,18.95,13.5,1.13.73,3.62-.91,5.5-1.01,1.66-.09,3.85-.14,4.94.8,4.39,3.77,10.2,5.18,13.36,2.72,3.88-3.02,7.55-13.5,4.71-16.4-3.9-4-1.65-7.23-.26-10.58,2.53-6.12,3.53-12.08-.79-17.67-2.6-3.37-3.17-6.95-3.18-11.04-.02-8.87-2.96-12.21-11.56-14.5-1.99-.53-3.88-1.58-5.7-2.6-4.16-2.35-7.58-1.77-10.21,2.16-2.61,3.91-5,7.97-7.49,11.96Zm-376.71-53.3c5.92,2.16,11.77,3.44,18.33,3.04,5.54-.33,6.82-.17,6.92-5.7.12-6.69-.43-13.33,2.29-19.89,3.35-8.1,2.43-13.11-5.13-15.53-3.25-1.04-6.51-2.17-9.85-2.74-8.34-1.43-15.84,1.45-23.05,5.2-.88.46-1.69,2.04-1.67,3.09.06,3.18.54,6.35.81,9.07-1.41-.59-3.04-1.28-4.71-1.98-2.13,6.32-1.07,10.29,3.03,14.08,2.81,2.6,4.06,1.75,4.56-1.53,2.46,3.83,4.94,7.68,7.42,11.53-5.61-3.63-11.23-7.26-17.52-11.33-.94,9.55,2.57,18.48-2.87,26.35-.46.67-.19,1.98,0,2.95,1.66,8.59-1.65,16.76-2.75,25-1.08,8.1-4.04,15.69-2.93,24.37.83,6.53,2.64,11.69,7.11,16.33,4.93,5.11,9.49,10.56,14.22,15.86-2.75-1.47-5.5-2.94-8.49-4.55-1.94,1.66-4.16,3.55-6.35,5.41,4.81,7.33,12.14,8.44,20.01,9.99-.24-2.01-.43-3.59-.62-5.17,1.52,1.23,2.88,2.77,4.59,3.62,2.03,1.01,4.35,1.44,6.54,2.12.26-2.17,1.46-4.85.61-6.4-2.21-4.02-1.15-7.41.12-11.26,2.61-7.92,1.3-15.67-1.48-23.39-.81-2.25-.21-5.02-.17-7.54.1-5.92,1.08-11.98.08-17.71-.57-3.28-.28-5.51,1.1-8.22,2.2-4.31,6-8.11,4.94-13.58-.45-2.33-1.18-4.61-2.06-7.97,1.07,1.4,1.65,1.85,1.83,2.43,1.38,4.37,2.59,8.78,4.06,13.12.36,1.06,1.46,1.87,2.22,2.8.98-.94,2.48-1.71,2.84-2.84.87-2.76.98-5.75,1.8-8.52,1.33-4.46,1.49-9.24-2.48-11.67-3.67-2.25-8.51-2.62-12.9-3.54-.48-.1-1.35,1.63-2.59,3.22-2.7-2.95-5.25-5.74-7.8-8.52Zm264.84-162.08c1.69,1.26,3.25,2.77,5.09,3.72,3.28,1.69,6.64,3.6,10.16,4.16.93.15,2.59-4.35,3.9-6.71.24-.44.5-.87.66-1.34,1.72-5.02,6.01-11.04,4.55-14.84-2.36-6.12.61-11.31-.37-16.81-.52-2.89-1.28-5.89-1-8.75.89-8.78,2.26-17.51,3.38-26.27,1.02-7.93,2.63-15.86,2.73-23.8.1-8.16-1.56-16.33-2.01-24.52-.36-6.64.2-13.33-.15-19.98-.34-6.47-2.47-12.43-8.93-15.23-1.78-.77-4.9-.22-6.55.94-1.85,1.3-2.51,4.16-4.07,6.02-5.49,6.52-11.16,12.87-16.71,19.34-.98,1.14-2.31,2.43-2.44,3.75-.58,6.29-.73,12.62-1.19,18.92-.2,2.75-.53,5.53-1.22,8.19-2.22,8.55-4.69,16.92-2.16,26.02,1.07,3.85.98,8.46-.05,12.34-1.55,5.85-1.16,11.24.72,16.79,1.05,3.08,2.14,6.18,2.71,9.36,1.27,7.06,1.69,14.3,6.89,20.07,2.39,2.65,4.17,5.86,6.23,8.82h-6.76c.97,4.1,1.76,7.44,2.65,11.15-5.55-2.43-3.52-7.44-4.27-11.59-.8-4.39-2.69-8.57-4.11-12.85-.57.09-1.15.18-1.72.26-.29,1.16-.91,2.35-.81,3.48.57,6.2.62,12.58,2.31,18.48.72,2.52,4.76,4.56,7.72,5.75,1.19.48,2.52.23,4.06,1.3,1.62,1.13,4.8,1.08,6.77.28,1.44-.59,2.69-3.2,2.81-4.99.1-1.57-1.34-4.52-2.38-4.65-4.32-.54-5.22-3.71-6.45-6.82Zm-159.87,255.52c-.17-1.65-.32-3.29-.5-4.94-.76-7.04,2.37-13.48,3.17-20.14,1.2-9.89,3.96-19.02,7.86-27.99,1.28-2.94,3.6-6.11,3.3-8.95-1.23-11.56-2.41-23.27-5.39-34.45-1.74-6.53-6.68-12.28-10.48-18.19-8.63-13.44-15.97-27.22-13.99-44.01.44-3.71-.34-7-2.66-10.16-1.1-1.5-.8-3.99-1.3-5.99-.53-2.13-.85-4.48-2-6.25-2.58-4-5.62-7.7-8.95-12.16-7.73-.4-13.09,2.11-15.57,8.01-.68,1.63-1.26,3.33-1.65,5.05-1.26,5.54-3.76,11.5,0,16.55,2.84,3.82,2.08,6.46-.06,9.71-2.71,4.11-4.46,8.44-3.46,13.57.32,1.62.17,3.45-.24,5.06-1.64,6.42-6.79,11.87-5.54,19.07.43,2.49,2.5,4.95,2.27,7.27-.72,7.24-2.02,14.44-3.42,21.59-.71,3.62-2.62,7.05-3.09,10.67-.55,4.3.22,8.76-.23,13.08-.61,5.82-1.65,11.62-2.84,17.36-1.51,7.3-3.38,14.52-5.03,21.79-.18.77-.14,1.74.17,2.46,1.81,4.11,4.09,8.05,5.46,12.3.69,2.15.47,5.1-.46,7.18-3.45,7.7-7.42,15.17-11.06,22.79-.68,1.42-.77,3.13-1.09,4.72-.94,4.65-2.26,9.26-2.69,13.95-.73,8.01-.92,16.06,2.71,23.64,3.22,6.74,8.94,12.2,9.31,20.43.24,5.35,3.72,10.47,1.07,16.1-.26.56.07,1.73.54,2.24,5.66,6.15,10.3,13.73,19.93,14.46,1.01.08,2.44.55,2.89,1.31,1.75,2.94,4.1,2.28,5.6.52,2.81-3.31,6.8-6.93,7.17-10.73.96-9.73,6.11-17.52,9.61-26.08.42-1.02.52-2.19.61-3.31.33-3.96-.36-8.3,1.05-11.82,5.63-14.09,11.44-27.99,12.25-43.48.2-3.89,2.36-7.68,3.62-11.51.05,1.66.71,3.64.05,4.93-4.79,9.3,5.41,17.79,1.31,26.98-.12.28.38.88.65,1.29,3.07,4.8,3.63,10.14,3.5,15.67-.04,1.62.06,3.45.77,4.84,5.41,10.6,10.98,21.12,17.18,32.97,1.92-3.04,3.51-4.52,3.8-6.22.78-4.66.92-9.42,1.47-14.12.99-8.4,1.95-16.82,3.23-25.18.75-4.9,2.56-9.67,3.06-14.58.57-5.6.25-11.29.28-16.95.02-3.98,1.07-8.39-.27-11.85-3.97-10.19-5.79-19.98-1.21-30.56,1.49-3.45,1.81-8.15.82-11.77-1.72-6.29-2.57-12.37-.78-18.61,1.5-5.22,2.75-10.46,2.52-15.9-.06-1.4-1-3.68-1.93-3.91-1.2-.29-3.52.7-4.11,1.81-4.73,8.74-9.7,17.41-13.54,26.54-4,9.51-6.84,19.51-10.12,29.32-.61,1.83-.9,3.78-1.36,5.66-.72,2.98-1.46,5.95-2.2,8.92Zm-321.59-92.44c-.6-.16-1.2-.32-1.8-.48-.08-.81.09-1.8-.3-2.41-.94-1.44-2.16-2.7-3.27-4.03-1.25,1.15-2.7,2.16-3.67,3.51-.71,1-1.3,2.58-1.03,3.69,2.08,8.62-4.8,16.77-1.23,25.42.17.4-.04.98-.12,1.47-1.17,7.35-2.34,14.71-3.54,22.05-.28,1.74-.79,3.44-1.03,5.18-.34,2.47-1.51,5.47-.56,7.35,2.28,4.51,5.14,8.91,8.59,12.58,4.41,4.68,9.58,8.67,14.53,12.82,7.18,6.01,14.59,5.93,21.16.04.68-.61,1.72-.92,2.64-1.12,8.83-1.93,17.43.56,26.02,1.79,6.78.97,13.49-1.81,15.44-8.4,1.22-4.13,2.49-7.91,5.83-11,1.65-1.52,2.75-4.26,2.99-6.57.69-6.53,1.66-13.2.98-19.66-1.13-10.77,4.63-19.97,5.57-30.2.46-4.97,2.29-9.84,2.46-14.79.37-11.23-1.11-22.34-3.98-33.22-2.13-8.08-2.04-17.01-8.87-23.34-2.8-2.59-5.27-5.55-8.13-8.05-6.04-5.26-11.95-10.74-18.44-15.4-10.74-7.71-23.69-9.99-36.12-13.42-7.53-2.08-11.54,1-12.19,8.76-.49,5.85-1.99,11.61-2.6,17.46-.93,8.88-1.48,17.8-2.28,27.82,3.37-1.22,5.06-1.83,6.38-2.31.77,7.23.41,14.57,2.51,21.12,3.17,9.89-4.87,15.33-5.94,23.33ZM484.22,118.78c-1.63,2.33-4.03,4.21-4.21,6.28-.81,9.3-1.04,18.62,4.47,26.98.81,1.23.97,3.12.88,4.66-.48,8.05-1.15,16.09-1.75,24.14-.11,1.49.12,3.12-.41,4.45-4.88,12.35-4.13,25.5-5.67,38.32-.18,1.46-.45,2.9-.59,4.36-.39,3.95-2.08,8.45-.78,11.74,1.88,4.77,2.07,9.15,1.4,13.91-.32,2.29-.45,4.62-.69,6.92-.49,4.82-.49,9.34,2.85,13.56,1.74,2.2,3.01,5.47,2.94,8.21-.07,2.96-2.17,5.82-2.97,8.83-.39,1.47-.08,3.26.36,4.79.34,1.21,1.78,2.17,1.99,3.36,2.28,13.04,8.71,23.57,19.69,30.8,9.89,6.52,20.8,9.04,31.76,5.84,3.88-12.78,1.37-23.67-4.6-34.12-5.17-9.03-2.97-19.33-4.31-29.01-.55-3.98.8-8.18.74-12.28-.19-12.79-1.05-25.58-.89-38.36.14-11.01-.41-21.55-3.36-32.45-2.57-9.49-1.94-20.18-1.05-30.19.85-9.42,5.57-18.03,9.01-26.88,2.3-5.92,3.46-12.05,9.28-15.77.63-.41.62-1.76,1-2.64,2.44-5.66,4.32-11.68,7.52-16.87,3.18-5.17,4.61-10.52,6-16.31,1.65-6.83-1.42-10.79-4.71-16.04-6.71-10.71-16.27-17.46-27.12-22.61-4.28-2.03-9.58-2.5-14.43-2.57-6.74-.1-13.5.89-20.25,1.32-4.3.28-8.86,4.68-8.73,8.99.15,5.11,1.19,10.25.88,15.31-.51,8.14-1.86,16.22-2.76,24.33-.22,1.97-.16,3.99-.03,5.98.19,2.96.8,5.92.81,8.87.02,6.15.23,12.06,7.74,14.13Zm-180.53-53.25c-.2.87-.18,1.44-.45,1.79-.69.92-1.64,1.67-2.22,2.64-.81,1.36-2.04,2.91-1.95,4.31.57,9.41.34,9.89-8.46,13.97-1.09.51-2.76,1.75-2.68,2.48.81,6.9,1.81,13.79,3.06,20.63.54,2.93,2.04,5.68,2.64,8.61.59,2.88.41,5.92.9,8.83.98,5.79,3.18,11.57,3.07,17.32-.19,10.46,2.77,19.9,6.37,29.43,1.09,2.9,1.46,7.05.16,9.61-1.61,3.19-1.13,5.35-.15,8.28,1.32,3.97,2.73,8.19,2.68,12.28-.07,7.02-1.54,14.01-1.89,21.04-.58,11.63-.74,23.29-1.06,34.93-.04,1.55.02,3.11,0,4.66-.05,3.05-.29,6.1-.14,9.14.21,4.26.69,8.51,1.08,12.77.3,3.3.65,6.6.93,9.91.29,3.51.58,7.03.73,10.55.05,1.28-.89,2.85-.42,3.81,3.77,7.63.56,16.94,5.87,24.1.92,1.25,2.37,2.41,3.81,2.91,8.52,2.95,16.47-1.22,24.5-2.76,3.76-.72,8.2-3.96,10.07-7.32,4.1-7.38,8.67-15.2,3.73-24.37-.86-1.6.04-4.19.24-6.31.12-1.29.78-2.59.63-3.82-1.11-9.18-5.46-18.1-2.15-27.63.15-.44-.01-.99-.04-1.49-.31-5.26-1.62-10.71-.73-15.76,1.64-9.23-.51-17.25-5.28-24.81-1.87-2.97-1.76-5.33-.66-8.65,1.51-4.55,2.7-9.71,1.98-14.29-.44-2.8.01-4.45,1.05-6.59.75-1.54,1.54-3.25,1.57-4.91.14-5.9,1.03-12-3.14-17.17-.44-.54-.4-1.56-.4-2.36-.03-8.16-.12-16.33.02-24.49.04-2.21,1.72-4.73,1.08-6.56-3.01-8.68-7.27-17.02-5.49-26.68.06-.31-.15-.65-.15-.98-.08-7.29-3.76-13.3-6.6-19.7-2.05-4.62-3.39-9.24-9.03-10.72-.92-.24-1.48-1.84-2.28-2.91,3.59-1.55,3.89-1.49,5.37-8.57,1.33-6.35,5.06-12.51,1.49-19.48-1.02-2,.92-5.44-2.6-6.57-2.67-.86-5.4-1.69-8.16-2.01-1.54-.18-3.18.83-4.81,1.07-9.03,1.29-12.93,8.66-17.4,15.08-2.82,4.05-.58,6.85,5.31,6.76Zm-164.11,130.4c-6.22-5.04-9.79-10.77-12.54-16.61-3.29-6.99-3.51-15.85-13.26-18.01-.45-.1-.65-1.1-1.07-1.61-2.84-3.45-6.95-3.78-10.85-1.41-2.91,1.77-6.16,2.96-9.22,4.48-1.27.63-3,1.16-3.59,2.24-4.73,8.74-6.43,18.6-3.88,27.75,2.65,9.5,8.28,18.17,12.59,27.21.48,1,1.03,2.04,1.16,3.11.93,7.61,1.27,15.34,2.8,22.81,1.09,5.32,3.14,10.67,5.86,15.38,8.85,15.33,22.15,26.73,34.83,38.74,12.58,11.92,28.09,15.66,44.34,17.57,7.76.91,15.74-10.08,11.65-16.21-3.01-4.51-2.69-8.3-1.88-12.97.39-2.25-1.34-4.79-1.71-7.26-.33-2.24-.5-4.63-.07-6.83.73-3.77,2.61-7.39,2.88-11.15.49-6.96-.8-14.16.43-20.93,1.19-6.56-.02-11.83-3.27-17.22-2.39-3.95-4.09-8.05-3.83-13.02.16-3.04-.91-6.52-2.49-9.17-2.35-3.93-3.74-7.72-3.94-12.41-.54-12.68-2.71-24.82-15.77-31.3-1.45-.72-2.95-1.36-4.29-2.24-6.34-4.19-17.96-.1-18.4,7.37-.37,6.28,1,13.1,3.33,18.99,2.9,7.32,7.26,13.99,6.54,22.37-.14,1.62.71,3.41,1.37,5.01,1.7,4.13,3.54,8.21,5.33,12.3-6.29-4.59-10.76-10.1-12-17.98-.65-4.1-2.03-8.27-3.99-11.92-1.64-3.03-3.6-6.85-9.13-6,.61,2.6,1.14,4.9,2.08,8.91Zm434.13,111.38c-2.61,8.79-4.7,16.74-7.35,24.5-2.44,7.16-6.12,13.95-8.09,21.21-1.91,7.04-1.68,14.77,3.08,20.66,4.38,5.43,4.85,10.7,3.35,16.96-1.03,4.28-2.07,8.7-2.03,13.05.07,6.03,1.39,12.03,1.73,18.07.33,5.79,5.3,10.31,10.86,8.91,10.12-2.56,19.99-5.43,28.47-12.29,8.14-6.58,10.93-11.31,8.39-20.88-2.78-10.49-2.43-20.82-.14-31.28.52-2.36.06-4.93.11-7.4.19-10.87-.5-21.86.85-32.58,1.56-12.43,4.81-24.65,4.22-37.31-.1-2.16-.76-4.81-2.16-6.29-4.08-4.32-8.68-8.16-13.05-12.21-2-1.85-3.95-3.74-5.92-5.61,6.73,1.95,9.82,9.04,17.7,10.31-1.66-10-9.68-15.15-13.52-23.96-3.41,5.54-6.12,10.22-9.1,14.71-4.13,6.22-8.14,12.57-12.83,18.35-2.76,3.4-6.43,6.4-10.29,8.45-3.21,1.7-5.76,3.37-4.35,6.88.96,2.38,3.48,4.3,5.65,5.96,1.5,1.15,3.61,1.51,4.41,1.82Zm143.21-72.94c-2.11-3.2-3.76-6.3-5.99-8.9-3.03-3.53-3.58-7.37-3.88-11.89-.42-6.36-1.31-13.06-3.86-18.78-2.18-4.87-6.85-8.72-10.77-12.66-.95-.96-4.03-1.32-4.9-.55-2.6,2.29-5.3,4.97-6.63,8.07-1.55,3.6-2.03,7.77-2.4,11.75-.73,7.91-1.67,15.73-6.93,22.1-4.27,5.17-5.07,10.76-3.4,17.07,1.02,3.87.05,7.08-3.81,9.21-1.23.68-2.69,2.32-2.73,3.56-.15,4.44-.78,9.27.65,13.28,3.87,10.88,9.03,21.29,13.08,32.11,8.51,22.68,24.83,38.54,44.16,51.89,2.05,1.42,4.11,2.88,6.33,4,1.02.52,2.92.8,3.55.22.72-.66.94-2.54.56-3.61-2.13-5.97-3.96-11.72-8.4-17.01-4.39-5.24-6.11-12.97-8.17-19.85-1.47-4.92-1.65-10.25-2.28-15.41-1.21-10.05-2.47-20.1-3.39-30.18-.21-2.36.15-5.37,1.48-7.16,5.22-7.02,7.7-14.89,8.82-23.42.2,2.9.32,5.82.17,8.72-.15,2.71.37,6.15-1.06,7.99-6.86,8.86-5.61,19.12-4.56,28.76,1.11,10.28,4.33,20.36,7.09,30.4,1.01,3.68,3.32,7.01,5.19,10.8,2.27-6.07,3.64-11.1,6-15.6,2.12-4.03,2.78-7.79,1.91-12.21-.45-2.28.44-4.79.4-7.19-.06-2.94-.51-5.86-.72-8.8-.23-3.21-.62-6.43-.51-9.64.09-2.75,2-6.07,1-8.11-3.04-6.21-.51-11.86.21-17.78.46-3.8,2.83-8.22-2.14-11.12-2.4-1.4-4.61-3.16-7.09-4.41-2.19-1.11-4.63-1.73-6.96-2.57v6.92Zm-57.53,34.59c-.34.02-.68.04-1.01.05.32,1.48.34,3.11,1.01,4.41,3.58,7.04,3.62,13.81-1,20.43-.65.93-1.28,2.03-1.44,3.12-.64,4.5-2.39,9.36-1.34,13.46,1.74,6.75,2.38,13.12.74,19.86-.72,2.98-1.81,6.46-.91,9.1,1.35,3.94.6,6.84-1.16,10.22-2.54,4.88-3.08,9.56,2.16,13.57,1.31,1,2.04,3.93,1.69,5.71-1.09,5.54-3.27,10.88-4.15,16.43-.7,4.4-2.31,8.99.73,13.51,2.01,2.98,2.38,7.28,4.76,9.75,2.61,2.71,6.57,4.26,10.16,5.85,10.19,4.52,20.45,9.06,31.8,9.63,6.14.31,12.43.97,17.41-4.4,4.16-4.48,8.86-8.46,13.4-12.73,0-8.15,0-17.23-.02-26.31,0-.63-.13-1.62-.51-1.82-3.5-1.79-2.22-5.04-2.66-7.83-.45-2.84-.7-6.1-2.28-8.27-2.57-3.53-6.03-6.46-9.33-9.39-9.56-8.48-21.13-14.85-28.34-25.76-5.44-8.24-10.35-16.9-14.77-25.74-5.38-10.75-9.99-21.89-14.94-32.86Zm-453.1,170.43c.44.3.89.6,1.33.9,2.79-1.47,5.79-2.64,8.33-4.46,7.86-5.64,15.78-11.24,23.24-17.39,7.71-6.36,15.98-12.32,19.95-22.21,2.68-6.68,6.34-13,8.67-19.79,2.39-6.97,4.83-14.26,5.22-21.52.68-12.72-.05-25.52-.52-38.28-.11-2.94-.88-6.33-2.55-8.64-3.41-4.75-11.12-5.05-16.45-1.3-1.65-1.3-3.12-3.14-5.01-3.81-7.61-2.71-15.56-3.73-23.46-2-2.91.64-6.25,2.71-7.75,5.15-.9,1.46,1.32,4.91,2.27,7.41.33.88,1.67,1.72,1.54,2.37-1.05,5.39-2.21,10.76-3.63,16.06-.52,1.95-2.23,3.57-2.76,5.52-1.73,6.38-3.72,12.78-4.56,19.3-.82,6.36-3.12,12.81.25,19.42,1.35,2.65,1.75,6.55.92,9.4-3.43,11.73-3.43,23.7-3.52,35.7-.02,2.06.49,4.16.28,6.19-.42,4.01-1.18,7.99-1.79,11.98Zm401.19,2.82c-.22-.04-.44-.08-.66-.11,0-2,.12-4.01-.03-6-.23-3.24-2.18-5.21-5.31-5.36-4.94-.23-10.13-.97-14.8.18-8.32,2.03-15.15,7.27-20.98,13.42-4.09,4.31-2.37,10.08-1.96,15.18.51,6.48,1.54,12.98,3,19.31,1.78,7.72,5.68,14.94,5.25,23.18-.02.45.23,1.05.56,1.36,2.83,2.68,1.87,5.68,1.37,9.01-1.41,9.43-7.41,18.98,1.23,28.27,4.54,4.88,7.44,11.35,12.19,15.96,3.3,3.21,9.08,6.94,12.66,6.05,5.62-1.4,12.11-4.25,14.59-11.05,2.25-6.17,3.24-13.39,7.14-18.24,6.48-8.06,5.19-15.56,1.86-23.69-2.85-6.97-6.38-13.69-8.83-20.78-2.91-8.4-5.14-17.05-7.35-25.68-1-3.88-1.63-7.95-1.68-11.94-.04-3.01,1.13-6.04,1.75-9.06Zm38.84-188.54c0-4.41.08-8.18-.02-11.94-.17-7.14-.54-14.28-.62-21.43-.03-2.42.07-5.07,1.01-7.23,3.74-8.61,8.23-16.91,11.59-25.65,1.5-3.9,1.48-8.6,1.27-12.89-.3-5.87-2.87-11.6-.74-17.67.34-.98-.68-2.76-1.54-3.78-2.25-2.68-4.78-5.13-7.16-7.72-1.72-1.87-3.37-3.81-5.14-5.82,2.65-4.52-.07-9.09-2.61-12.81-1.31-1.92-5.46-1.91-8.33-2.77l-1.59,1.93c1.57,3.15,3.14,6.29,4.66,9.35-2.84-2.19-4.3-2-4.82,2.13-.89,7.19-.13,14.8-6.38,20.69-1.61,1.52-.8,5.8-.79,8.82.02,4.98.84,10.02.34,14.93-.82,8.15,1.37,16.06,5.23,22.3,5.01,8.09,4.9,16.18,4.62,24.65-.17,5.02-1.86,10.03-1.78,15.02.11,7.04,1.64,14.05,1.78,21.09.1,5.01-1.01,10.06-1.71,15.07-.92,6.53-1.96,13.04-2.97,19.67,8.79.33,12.93-5.41,10.81-12.33-3.94-12.86-4.18-26.1-2.97-39.36.22-2.37,1.82-4.62,3.23-7.99,1.48,5.23-.93,10.33,4.61,13.74Zm149.27-99.33c-1.39.61-3.11,1.35-4.82,2.12-3.19,1.42-6.38,2.85-9.56,4.27-3.05,1.36-7.43,1.89-8.89,4.24-4.86,7.81-9.39,15.74-10.31,25.56-.89,9.4-3.68,18.68-6.3,27.82-1.27,4.43-1.86,8.34,1.08,12.02,5.75,7.22,14.01,9.73,22.56,11.52.53.11,1.31-.27,1.76-.66,5.64-4.85,12.33-16.06,9.04-24.95-.56-1.51-.61-3.9.23-5.12,3.82-5.61,6.77-11.37,6.28-18.44-.06-.81,1.17-1.67,1.7-2.57,1.31-2.23,3.13-4.37,3.69-6.79.74-3.19.87-6.23,4.26-8.14.95-.54,1.17-2.98,1.13-4.54-.08-3.61-4.79-6.4-1.87-10.79.29-.44-1.76-3.09-3.19-3.86-1.8-.97-4.07-1.08-6.78-1.7Zm-63.72,75.48c1.28-4.7,2.56-8.73,3.46-12.85.69-3.16.17-6.77,1.49-9.56,2.96-6.22,2.38-12.36,1.19-18.68-.36-1.89-.96-3.77-1.06-5.67-.24-4.64.96-9.79-.67-13.83-2.12-5.24-3.08-10.27-3.18-15.77-.03-1.47-1.54-3.5-2.92-4.24-3.02-1.62-4.76-3.43-5.12-7.12-.21-2.16-1.83-4.68-3.58-6.07-3.13-2.48-11.3-1.35-14.36,1.38-4.8,4.29-6.91,10.72-4.27,15.2,1.67,2.83,1.64,5.72.1,7.66-5.07,6.39-4.1,12.18-.67,19.07,4.35,8.73,7.51,18.07,10.87,27.27.58,1.59-.4,3.75-.64,5.65-.26,2.06-1.47,4.88-.57,6.04,4.91,6.35,11.24,10.69,19.93,11.52Zm42.47,156.26c2.59,3.3,5.16,5.42,5.46.05.42-7.45.68-15.11-.65-22.38-.63-3.45-1.08-6.05.15-9.38,1.39-3.76.07-6.93-3.87-8.94-3.6-1.83-6.92-2.67-10.68-.46-1.48.87-3.34,1.24-5.07,1.49-1.2.17-2.69-.73-3.69-.31-4.96,2.09-10.73,14.59-9.38,19.99,1.46,5.85-.59,12.83,5.49,17.25.34.25.22,1.28.16,1.93-.68,6.67-1.34,13.34-2.11,20-.41,3.55-2.54,7.83-1.23,10.46,2.38,4.8,2.79,11.23,9.19,13.69,3.81,1.47,7.37,3.78,10.78,6.09,5.14,3.48,11.49,1.89,11.88-3.94.45-6.55.62-13.89-1.92-19.63-2.09-4.71-3.67-8.41-2.86-13.64.57-3.65-.93-7.63-1.64-12.28Zm32.54-63.95c6.66-.67,11.87-1.45,17.11-1.64,3.72-.14,5.84-1.22,6.38-5.21.73-5.35,2.71-9.89,8.59-11.81,1.58-.52,3.8-2.82,3.69-4.14-.48-5.82,2.57-9.35,5.85-13.71,6.11-8.13,4.61-12.49-1.99-20.77-2.63-3.3-5.24-4.86-8.65-3.81-3.18.98-5.98,3.31-8.85,5.19-4.1,2.7-7.87,6.12-12.31,7.96-1.35.56-4.22-3.65-6.79-4.64-2.72-1.05-6.07-1.53-8.81-.87-.91.22-.79,4.76-1.1,7.33-.08.7.28,1.57,0,2.12-6.4,11.83-6.31,24.87-6.97,37.75-.06,1.25,1.19,3.41,2.25,3.73,4.18,1.24,8.53,1.91,11.59,2.54Zm31.47-147.38c-10.24,7.14-15.46,16.99-18.99,27.88-1.29,3.98-3.54,8.51-2.64,12.11,1.13,4.5-.62,6.15-3.33,8.4-1.49,1.24-2.76,2.86-3.79,4.52-5.75,9.25-4.75,18.68-.44,28.11,1.01,2.22,1.79,4.67,3.3,6.5,4.79,5.8,11.46,5.86,15.48-.11,2.29-3.4,2.63-8.31,5.3-11.2,8.26-8.95,7.46-20.85,11.17-31.24,3.14-8.8-.48-17.59-1.69-26.29-.88-6.33-2.87-12.5-4.35-18.69Zm-308.09-15.01c-6.85,5.62-8.92,16.9-6,27.97,2.13,8.1,3.54,16.56,3.89,24.92.49,11.62-.54,23.29-.43,34.93.03,3.21,1.29,6.71,2.92,9.53,2.39,4.14,3.26,8.03,1.42,12.53-.45,1.1-.53,2.81.03,3.77,1.78,3.04,3.95,5.85,6.7,9.81,3.27-5.79,6.44-11.31,9.46-16.91.24-.44-.61-1.42-.87-2.17-1.66-4.91-4.43-9.77-4.72-14.77-.7-11.98-.62-24.05-.08-36.05.34-7.62,1.81-15.23,3.3-22.73.7-3.51,3.39-6.6,1.24-10.53-1.15-2.1-1.84-4.46-2.74-6.7.52.12,1.04.23,1.56.35.77-1.89,2.41-3.91,2.15-5.64-.8-5.22-2.13-10.4-3.73-15.44-.42-1.32-2.58-2.08-3.94-3.1-1.05,1.41-2.8,2.73-2.98,4.24-.29,2.44.46,5.01.77,7.52-.42.07-.84.15-1.26.22v-12.49c-.69-.29-1.39-.59-2.08-.88-2.11,2.62-4.35,5.15-6.19,7.95-.35.52.88,2.09,1.6,3.66Zm220.92,279.22c1.47,6.65,2.25,12.83,4.26,18.58,1.96,5.59-1.01,12.02,3.48,17.17.74.85-1.35,3.74-1.01,5.46.72,3.71,2.43,7.22,3.28,10.91,1.89,8.26,3.67,16.55,5.16,24.89.97,5.46,5.11,7.37,9.68,4.05,2-1.45,3.88-3.1,6.01-4.32,4.13-2.37,5.82-5.51,4.71-10.35-.58-2.54-.29-5.28-.31-7.93-.13-15.86-2.17-31.16-12.94-43.85-2.15-2.53-5.59-4.51-6.56-7.37-2.5-7.41-7.84-7.82-15.77-7.24Zm.39-154.75c1.01,7.95,2.22,14.78,2.62,21.65.27,4.61,1.86,8.29,6.38,8.26,4.19-.03,10.51-.81,12.1-3.51,3.77-6.38,7.76-13.2,6.95-21.55-.48-4.98-2.53-10.55,2.19-15.08.71-.68.06-2.83-.06-4.29-.38-4.8-2.7-9.2-.99-14.48,2.27-7.01-.82-10.18-8.2-9.7-3.29.21-6.61.55-9.83,1.24-4.12.88-7.24,2.71-6.36,7.95.31,1.84-.34,3.86-.67,5.78-1.41,8.21-2.86,16.42-4.15,23.74Zm51.88,80.78c-6.7,1.78-9.14,5.25-8.17,10.62.87,4.85,1.91,9.48-1.01,14.19-.85,1.36.2,3.86.24,5.83.05,2.39-.12,4.79-.07,7.18.08,3.43-.38,7.05.58,10.23,1.62,5.33,4.73,10.23,6.18,15.59,1.49,5.47,5.28,7.46,9.89,9,1.16.39,2.31.78,5.07,1.72-6.44,1.3-10.47,3.25-8.81,9.31.51,1.87,1.09,3.93,2.28,5.37,3.2,3.89,7.28,7.14,10.01,11.3,3.01,4.6,6.88,5.95,11.74,5.17,1.43-.23,3.18-1.74,3.77-3.1.56-1.3-.01-3.22-.45-4.76-.33-1.19-1.85-2.28-1.75-3.31.48-4.95-2.45-7.97-5.6-10.93-1.81-1.7-4.25-2.98-5.44-5.02-2.77-4.71-5.03-9.73-7.35-14.7-9.49-20.32-12.41-41.57-9.04-63.75.95-6.27,2.46-12.8-2.83-18.21-3.79,2.65-5.48,8.29-3.72,10.66,1.63,2.2,2.82,4.73,4.49,7.61Zm-512.97-45.74c-1.1-4.03-2.01-8.13-3.38-12.06-.58-1.66-2.15-2.97-3.28-4.44-1.69,1.33-4.11,2.3-4.93,4.04-3.92,8.3-4.16,17.05-2.43,25.99.69,3.57,1.84,7.53.97,10.84-3.69,14.16-1.54,28.14-.44,42.32.88,11.29,1.04,22.94-.83,34.04-1.19,7.06-.33,13.35.75,19.93.16.96,1.72,2.31,2.66,2.34.83.02,2.34-1.48,2.46-2.43.55-4.66,1.2-9.38.94-14.03-.39-6.99-.91-13.83.44-20.86.99-5.17.12-10.68.4-16.02.21-4.05.79-8.1,1.47-12.11.83-4.85,2.26-9.6,2.84-14.47.48-4.07.19-8.23.1-12.36-.09-4.41-.34-8.82-.53-13.22-.07-1.6-.5-3.25-.2-4.78.8-4.12,1.9-8.18,2.98-12.71Zm153.72,267.43c-5.39-9.68-11.07-18.19-15.02-27.43-3.84-9-5.91-18.77-8.75-28.2-2.05,2.66-2.34,5.84-4.07,7.65-5.72,5.97-8.43,13.51-8.49,21.05-.07,9.31,2.12,18.68,3.71,27.96.54,3.13,3.25,4.23,5.46,1.6,2.59-3.08,4.42-6.79,6.59-10.24.97,4.06,2.2,7.97,7.19,10.59,6.18,3.25,8.29-3.9,13.37-2.97Zm410.14-390.53c-7.91,6.81-7.36,15.02-5.56,22.92,1.85,8.09,4.99,15.88,7.55,23.8,1.25,3.88,2.48,7.76,3.87,12.09,2.13-2.64,3.69-5,5.67-6.94,4.33-4.26,6.8-9.26,7.55-15.32.5-4.04,1.83-7.98,2.49-12.01.59-3.62.89-7.31,1.01-10.97.03-.88-1.13-1.87-1.88-2.69-1.08-1.19-2.51-2.11-3.39-3.41-4.85-7.17-9.12-7.7-14.61-1.5-.84-1.87-1.66-3.7-2.68-5.96Zm-220.72,268.45c-.36.08-.72.15-1.08.23,1.04,6.43,1.59,13.01,3.39,19.22.58,2.01,4.37,4.19,6.79,4.32,3.59.19,2.53-3.52,2.57-5.81.09-5.32.03-10.65,4.9-14.27,4-2.97,3.83-6.47,1.62-10.43-2.86-5.12-6.17-10.09-8.24-15.52-2.49-6.52-5.77-13.04-3.2-20.67.75-2.23-.64-5.48-1.72-7.97-1.33-3.05-5.51-3.35-7.22-.33-1.79,3.15-3.64,6.94-3.5,10.37.3,7.51-1.72,15.05,2.11,22.67,2.68,5.32,2.49,12.08,3.59,18.19Zm-25.4,133.7c-.03,5.82,3.96,7.04,8.17,8.44,4.41,1.47,6.7.16,9.12-3.64,3.38-5.33,2.81-10.94,2.84-16.62.02-4.58-6.98-13.12-11.37-13.69-1.21-.16-2.98-.03-3.67.73-2.22,2.42-4.07,5.19-5.48,7.07-1.46-.99-4.5-4.12-5.54-3.56-3.39,1.84-8.39.34-10.43,4.78-1.1,2.39-2.2,4.79-3.13,7.25-2.39,6.32.11,10.09,6.83,10.64,1.22.1,2.55.55,3.55,1.24,4.55,3.13,6.62,2.59,9.11-2.65Zm160.32-157.65c-.49.31-.98.62-1.47.93,18.45,17.24,23.15,39.15,22.8,63.46,4.75-3.94,10.28-7.72,11.59-12.64,1.82-6.82,2.11-14.99.06-21.66-2.17-7.07-7.45-13.38-12.17-19.4-2.38-3.03-6.51-4.68-10.54-7.42,2.24-.25,3.63-.41,6.6-.74-1.9-2.42-3.1-5.23-4.38-5.27-2.25-.07-4.55,1.56-6.83,2.47.16.37.32.74.48,1.11-2.04-.28-4.09-.57-6.13-.85ZM376.59,49.15c-.01-.15-.03-.29-.04-.44-3.33,0-6.66-.09-9.99.02-3.85.14-5.91,2.34-6.29,6.11-.4,3.95.02,7.17,5.06,8,3.03.5,6.04,1.81,8.78,3.27,10.51,5.61,21.37,5.79,32.44,2.32,4.77-1.5,5.23-3.93,1.78-7.44-3.07-3.12-5.96-6.48-9.37-9.18-2.33-1.85-5.36-3.67-8.18-3.85-4.69-.3-9.46.72-14.19,1.19Zm367.64,492.08c1.03-5.64.99-5.85,8.37-10.62,4.23-2.73,4.17-6.47,3.15-10.45-1.52-5.93-5.01-9.14-9.09-9.48-8.68-.71-13.89,6.15-20.78,9.35-.45.21-.56,1.43-.59,2.19-.11,2.82-.3,5.66-.13,8.48.51,8.14,6.52,13.1,14.39,11.92,1.59-.24,3.12-.91,4.67-1.38Zm-468.64-136.98c.31-.09.61-.18.92-.27-1.24-2.77-2.17-5.74-3.81-8.25-1.28-1.96-3.38-4.54-5.23-4.64-1.86-.1-4.37,2.17-5.71,4.04-3.96,5.5-5.17,12.63-11.48,16.89-3.36,2.26-2.2,7.84,1.04,10.03,3.82,2.58,7.6,5.22,11.47,7.73,3.88,2.51,10.35.56,10.86-3.52.92-7.3,1.32-14.67,1.93-22.01Zm154.91,204.92c-.28-.05-.56-.11-.84-.16,0-1,.06-2,0-2.99-.33-5.03-3.64-9.87-7-10.29-2.88-.36-9.14,3.87-10.39,7.3-1.66,4.56-3.02,9.22-4.62,13.8-.89,2.55-2.31,4.95-2.94,7.55-1.04,4.34,1.65,9.44,5.02,10.3,5.48,1.38,15.58-2.73,16.77-7.21,1.6-6.02,2.69-12.18,4-18.28Zm248.52-184.26c-4.11,1.09-7.82,1.84-11.34,3.15-1.06.39-2.19,2.31-2.18,3.53.02,4.09.57,8.17.85,12.27.28,4.08,5.12,8.63,8.01,7.04,8.2-4.5,16.37-9.11,24.13-14.31,2.23-1.5,3.03-5.15,4.48-7.82-2.59-1.01-5.11-2.59-7.78-2.92-5.45-.67-10.99-.68-16.17-.94Zm-117.37-132.38c3.19-1.25,5.21-1.6,6.7-2.69,9.97-7.31,17.19-16.87,22.05-28.17.5-1.17.18-3.56-.69-4.32-3.53-3.1-7.2-6.18-11.25-8.51-4.25-2.44-7.05-.18-8.1,4.77-1.8,8.51-4.2,16.89-6.18,25.37-.95,4.05-1.54,8.19-2.53,13.56Zm72.78,206.52c1.01,5.38,4.81,9.34,9.33,9.61,6.68.4,18.08-8.58,18.38-15.33.29-6.6-.25-13.31-1.23-19.85-.31-2.1-3.02-5.12-4.93-5.36-1.96-.24-4.54,2.14-6.32,3.9-.99.97-1.02,3.02-1.28,4.61-.52,3.23-.49,6.61-1.44,9.7-.98,3.18-2.19,6.21-6.77,6.77-2.13.26-3.85,3.86-5.75,5.95Zm128.08-181.36c-.83.33-3.45.61-4.88,2.07-3.53,3.6-6.64,7.63-9.61,11.72-.67.92-.62,3.09,0,4.12,4.8,7.83,9.27,8.79,17.38,4.09.83-.48,1.75-.8,2.65-1.15,4.57-1.8,7.69-5.99,7.09-9.54-.98-5.8-6.34-11.21-12.64-11.3Zm-48.07,213.9c2.34,0,4.25.34,5.96-.1,1.43-.37,3.22-1.35,3.83-2.57,1.62-3.27-2.83-12.25-6.47-13.28-4.99-1.41-10.01-2.82-15.11-3.7-3.07-.53-6.3.11-7.75,3.61-1.46,3.53.19,6.04,2.97,8.02,1.71,1.22,3.87,2,5.23,3.51,3.25,3.62,6.97,5.46,11.34,4.51ZM284.18,236.86c-1.75,3.83-3.89,8.16-5.68,12.64-.58,1.45,0,3.31-.29,4.92-.47,2.54-2.02,5.17-1.62,7.5.33,1.91,2.7,4.67,4.41,4.87,2.84.33,7.16,2.12,8.54-2.44,1.11-3.68,1.87-7.63,1.81-11.45-.08-4.86-.99-9.74-1.85-14.56-.28-1.59-1.53-3.01-2.43-4.67.39-1.86,1.11-4.43,1.33-7.05.05-.53-1.77-1.22-2.72-1.84-1.04,2.68-2.34,5.31-3,8.08-.26,1.08.9,2.5,1.5,4Zm64.03,100.17c-.95-.35-1.47-.75-1.84-.64-5.79,1.71-11.49,3.77-17.35,5.15-4.74,1.12-9.69,2.06-14.48,1.8-1.87-.1-3.57-3.69-5.33-5.7-.68-.78-1.32-1.61-1.97-2.42-.63,1.01-1.72,1.98-1.8,3.03-.21,2.83.09,5.7.06,8.55-.07,5.41,2.78,7.8,7.98,6.53,6.33-1.55,12.79-2.75,18.93-4.88,6.17-2.14,11.63-5.75,15.81-11.41Zm99.44,252.41c-2.19,1.83-3.95,3.09-5.43,4.61-1.6,1.65-3.11,3.44-4.37,5.35-2.31,3.54-2.16,10.14.94,12.94,1.95,1.76,5.08,2.97,7.7,3,3,.04,8-7.57,7.98-10.95-.04-5.9-2.58-10.64-6.82-14.95Zm176.8-220.5c1.41,6.22,2.78,12.15,4.1,18.1.51,2.29,2.07,5.86,1.16,6.7-4.55,4.22-1.44,8.44-.32,12.3.46,1.59,3.74,3.28,5.7,3.23,1.5-.04,4.22-2.79,4.15-4.23-.16-3.59-1.57-7.12-2.56-10.66-.3-1.06-1.46-2.28-1.18-3.04,3.64-10.12-6.42-14.84-8.75-22.56-.01-.03-.3.02-2.29.14Zm-284.89,216.64c-.45,1.38-1.18,2.74-1.27,4.15-.11,1.81.3,3.66.49,5.49,2.16-.23,4.35-.35,6.48-.76.71-.14,1.19-1.21,1.91-1.52,4.05-1.7,3.83-5.33,3.14-8.41-.5-2.23-2.66-4.09-4.07-6.11-2.11-2.93-3.73-6.09-5.92-8.79-.56-.69-3.61-.51-4.35.32-2.81,3.16-1.95,14.46,3.59,15.63Zm277.82-315.28c4.51-13.71,3.89-17.43-1.45-20.75-3.34-2.08-7.37-3.33-11.26-4.2-2.92-.65-4.22,2.1-2.58,4.86,1.52,2.56,2.88,5.25,4.71,7.57,3.37,4.29,7.03,8.36,10.58,12.52Zm229.33-68.48c2.03-2.91,3.23-4.84,4.64-6.61,5.48-6.89,5-15.45-1.56-21.32-1.17-1.05-3.73-1.86-4.9-1.27-1.48.74-3.15,3.08-3.04,4.62.24,3.5,1.63,6.9,2.35,10.39.88,4.29,1.54,8.62,2.52,14.2Zm-681.69,113.24c6.88,8.41,12.98,15.57,22.19,19.14,3.28,1.27,5.78.31,5.04-3.24-.67-3.22-2.24-7.71-4.69-8.81-6.76-3.04-14.18-4.59-22.55-7.1Zm106.4-230.73c.87-.21,2.98-.26,4.57-1.19,3.33-1.95,6.32-4.48,9.59-6.54,2.54-1.6,4.78-3.31,3.95-6.63-.3-1.19-1.8-3.11-2.48-3-2.74.43-5.6,1.12-7.99,2.47-4.4,2.49-8.53,5.49-12.72,8.35-.94.64-2.47,1.79-2.33,2.37.34,1.4,1.25,2.96,2.41,3.76.93.64,2.57.26,4.99.4Zm-130.83,217.21c-5.46-6.12-12.89-9.1-16.85-15.83-.83-1.4-2.73-2.55-4.36-3-1.82-.51-4.36-.81-5.73.1-1.2.8-2.21,3.98-1.56,5.07,1.82,3.06,4.03,6.91,7,8.06,6.63,2.58,13.81,3.7,21.5,5.6Zm394.55,36.93c-3.22.47-7.2.57-10.85,1.72-4.49,1.42-5,5.11-1.65,8.28,1.57,1.48,2.86,3.45,4.68,4.42,2.95,1.56,6.2,2.62,9.42,3.5.53.14,2.45-1.89,2.3-2.63-.97-4.72-2.33-9.35-3.91-15.3Zm78.16-118.24c-.64.09-1.28.17-1.91.26-2.08,5.5-4.31,10.95-6.21,16.52-1.89,5.55-.1,7.53,5.64,6.54,1.27-.22,2.47-.82,3.74-1,3.5-.49,5.77-2.31,4.7-5.9-1.66-5.57-3.94-10.96-5.96-16.42Zm23.67,158.06c4.18-6,4.96-14.13,1.45-16.94-3.94-3.16-8.22-5.91-12.35-8.83-3,6.66,2.76,20.58,10.9,25.77ZM509.42,37.64c.08-.71.15-1.43.23-2.14-2.07-1.78-4.54-3.27-6.13-5.41-3.08-4.17-7.39-4.73-11.42-3.38-2.3.77-4.38,3.9-5.39,6.44-1.32,3.32,1.29,4.86,4.3,4.87,6.14.03,12.27-.23,18.41-.37ZM198.41,460.8c7.48-7.07,14.79-12.6,19.8-21.15-12.16.76-21.13,9.78-19.8,21.15ZM420.39,82.54c.31-6-1.56-9.6-5.03-12.07-2.75-1.96-13.59.65-16.55,3.5,6.94,2.76,13.86,5.5,21.58,8.57Zm-41.69-10c-2.43-1.36-3.97-2.42-5.66-3.13-3.89-1.65-7.75-3.45-11.8-4.57-2.85-.79-5.48.52-5.5,3.95-.02,3.03.67,6.36,4.76,6.03,5.68-.45,11.32-1.39,18.2-2.28Zm58.39,323.54c1.07,4.37,2.14,9.19,3.52,13.92.27.93,1.79,2.12,2.66,2.07.79-.04,1.82-1.52,2.15-2.56.63-2,.69-4.17,1.26-6.2,1.37-4.92-.21-8.44-4.79-10.71-3.38-1.68-4.41-.09-4.8,3.48Zm243.98,25.83c-6.8-2.91-12.8-5.7-18.98-8.03-2.85-1.08-6.36,2.84-4.48,4.63,2.89,2.75,6.78,5.38,10.57,5.98,3.7.58,7.82-1.45,12.88-2.58Zm-231.77,195.41c-3.23-.51-6.25-.53-8.9-1.55-2.23-.86-4.02-2.86-6.32-4.6-1.38,5.81.56,9.73,4.51,12.32,2.19,1.44,5.61,2.88,7.73,2.15,3.33-1.14,4.28-4.7,2.99-8.32ZM67.44,183.7c.49.52.98,1.04,1.46,1.56,2.06-.81,4.68-1.12,5.98-2.6.96-1.1.19-3.71.19-5.85,3.97-.87,1-4.3,1.8-7.26-2.7.24-5.02-.08-6.82.74-2.19,1.01-3.94,2.99-5.89,4.55,1.93,1.36,3.86,2.72,5.11,3.6-.47,1.34-1.16,3.3-1.84,5.25Zm237.8,300.27c-2-1.88-3.82-4.34-6.26-5.69-2.97-1.65-6.56-2.6-9.56.19-.75.7-1.26,3-.79,3.47,2.76,2.75,5.52,6.04,8.96,7.34,1.61.61,4.75-2.83,7.19-4.45.12-.08.16-.28.46-.85Zm49.61,126.62c2.74,0,4.19,0,5.64,0,2.91-.02,6.19.79,7.19-3.36.71-2.97-2.02-9.2-4.81-10.18-.93-.33-3,.15-3.29.8-1.69,3.89-3,7.94-4.73,12.74ZM246.75,107.5c2.97-1.39,5.75-2.46,8.29-3.94,2.2-1.29,5.47-3.23,2.98-5.95-1.82-1.99-5.81-3.63-8.28-3.05-6.68,1.57-4.86,6.8-2.99,12.94Zm247.5,220.16c-.59-1.45-.8-2.78-1.56-3.64-2.14-2.42-4.47-4.68-6.79-6.94-1.83-1.78-4.18-4.98-6.36-2.16-1.32,1.71-.95,6.51.57,8.26,3.19,3.66,7.69,6.06,14.14,4.48Zm352-103.04l-1.11-.16c-1.1,6.56-2.19,13.13-3.29,19.69.66.43,1.32.86,1.98,1.3,2.22-1.52,5.4-2.58,6.39-4.68,1.09-2.3.67-5.69-.04-8.36-.72-2.75-2.57-5.2-3.93-7.78Zm-253.2,203.67c.01.4.02.8.04,1.21,4.51.2,9.18,1.69,13.42-1.37,3.26-2.35,5.19-5.43,2.86-10.21-5.54,3.52-10.93,6.95-16.33,10.38ZM54.2,184.48c3.13,1.38,5.14,2.76,7.3,3.07,1.64.23,4.77-.64,4.95-1.49.41-1.98.14-5.3-1.14-6.18-2.05-1.39-5.44-2.15-7.7-1.43-1.61.51-2.3,3.91-3.41,6.04Zm666.65,235.77l1.08,2.28c3.96-.56,7.96-.96,11.84-1.86.59-.14,1.26-3.55.83-3.83-2.02-1.34-4.94-3.44-6.56-2.8-2.78,1.11-4.83,4.05-7.19,6.22Zm5.96,3.98c-4.25.77-5.9,2.21-5.79,5.58.16,4.75,4.19,4.13,6.85,4.35,1.7.14,3.57-1.86,5.36-2.9-2.14-2.34-4.28-4.69-6.41-7.03ZM548.16,54.51c-1.64,4.93-.24,8.61,3.81,10.64,3.2,1.61,5.06.87,5.39-2.88.41-4.82-2.41-7.3-9.2-7.76Zm-213.94,296.08c3.34.7,6.02,1.26,8.7,1.81,3.02.62,4.94-.87,5.42-3.63.42-2.42.09-4.97.09-7.86-5.02,3.42-9.33,6.35-14.21,9.67Zm-190.45-198.34c.1-4.09-3.93-8.01-7.38-7.44-.84.14-2.25,1.45-2.14,1.91.78,3.21,1.75,6.39,2.99,9.44.31.75,1.86,1.38,2.82,1.37.87-.01,2.07-.79,2.52-1.58.71-1.23.9-2.75,1.19-3.7Zm130.07,237.54c.6-.52,1.2-1.05,1.8-1.57-1.17-3.51-2.25-7.06-3.65-10.48-.13-.32-3.17-.1-3.31.36-.9,2.87-2.26,6.11-1.6,8.76.37,1.46,4.39,1.99,6.77,2.94Zm482.38-145.43c4.66-.31,8.36-.55,12.05-.8.22-.47.43-.93.65-1.4-3.31-1.96-6.63-3.91-10.96-6.47-.68,3.4-1.18,5.88-1.74,8.67ZM476.25,67.28c-.89-.12-1.77-.23-2.66-.35-.38,5.36-.75,10.71-1.13,16.07.77.06,1.54.12,2.31.18.49-5.3.98-10.6,1.48-15.9Zm-48.64,526.7c-.39.84-.78,1.69-1.17,2.53,1.54,1.07,3.37,3.27,4.57,2.97,2.06-.52,3.72-2.59,5.55-4.02-.17-.63-.33-1.26-.5-1.89-2.82.13-5.64.27-8.46.4Zm137.48-162.16c.63,2.46.96,4.29,1.67,5.96.11.25,2.33.14,2.93-.46,1.38-1.36,2.36-3.13,4.04-5.5h-8.64Zm-296.31-160.45h7.34c-2.45-3.23-4.14-5.46-5.83-7.69-.62.24-1.23.48-1.85.72.11,2.24.22,4.47.34,6.97Zm6.78-14.9c-.61-.43-1.22-.86-1.83-1.29-1.52,1.84-3.04,3.67-5.05,6.1,2.66,1.6,4.45,2.69,6.88,4.15v-8.96Zm322.27-6.78c-.69-.58-1.38-1.16-2.08-1.73-1.76,1.98-3.64,3.88-5.21,6.01-.35.47.28,2.45.66,2.51.96.16,2.48-.03,2.98-.69,1.43-1.87,2.45-4.04,3.64-6.1Zm-271.54,294.75c.52-.19,1.03-.37,1.55-.56,1.82-5.29,1.3-6.47-3.77-6.72.8,2.62,1.51,4.95,2.21,7.28Zm433.08-107.18c.49-.86.97-1.73,1.46-2.59-1.73-.95-3.44-1.92-5.23-2.75-.05-.03-1.25,2.04-1.15,2.11,1.57,1.17,3.26,2.18,4.92,3.23Z"/>
  </g>
</svg>